<mxfile host="app.diagrams.net" agent="Mozilla/5.0 (Windows NT 10.0; Win64; x64) AppleWebKit/537.36 (KHTML, like Gecko) Chrome/133.0.0.0 Safari/537.36" version="26.1.0">
  <diagram name="1 oldal" id="U2Ib_KwMWBWJhp-RN8JS">
    <mxGraphModel dx="2261" dy="1949" grid="1" gridSize="10" guides="1" tooltips="1" connect="1" arrows="1" fold="1" page="1" pageScale="1" pageWidth="827" pageHeight="1169" math="0" shadow="0">
      <root>
        <mxCell id="0" />
        <mxCell id="1" parent="0" />
        <mxCell id="IO0BBe2mcE7qisCONBEh-1" value="Álláskereső" style="rounded=0;whiteSpace=wrap;html=1;" vertex="1" parent="1">
          <mxGeometry x="90" y="290" width="120" height="60" as="geometry" />
        </mxCell>
        <mxCell id="IO0BBe2mcE7qisCONBEh-2" value="Cég" style="rounded=0;whiteSpace=wrap;html=1;" vertex="1" parent="1">
          <mxGeometry x="280" y="-80" width="120" height="60" as="geometry" />
        </mxCell>
        <mxCell id="IO0BBe2mcE7qisCONBEh-3" value="Jelentkezik" style="rounded=0;whiteSpace=wrap;html=1;" vertex="1" parent="1">
          <mxGeometry x="280" y="290" width="120" height="60" as="geometry" />
        </mxCell>
        <mxCell id="IO0BBe2mcE7qisCONBEh-4" value="Állás" style="rounded=0;whiteSpace=wrap;html=1;" vertex="1" parent="1">
          <mxGeometry x="500" y="290" width="120" height="60" as="geometry" />
        </mxCell>
        <mxCell id="IO0BBe2mcE7qisCONBEh-5" value="" style="endArrow=ERmany;html=1;rounded=0;exitX=1;exitY=0.5;exitDx=0;exitDy=0;endFill=0;entryX=0;entryY=0.5;entryDx=0;entryDy=0;endSize=12;startSize=12;" edge="1" parent="1" source="IO0BBe2mcE7qisCONBEh-1" target="IO0BBe2mcE7qisCONBEh-3">
          <mxGeometry relative="1" as="geometry">
            <mxPoint x="190" y="460" as="sourcePoint" />
            <mxPoint x="350" y="460" as="targetPoint" />
          </mxGeometry>
        </mxCell>
        <mxCell id="IO0BBe2mcE7qisCONBEh-6" value="" style="endArrow=none;html=1;rounded=0;startArrow=ERmany;startFill=0;exitX=1;exitY=0.5;exitDx=0;exitDy=0;entryX=0;entryY=0.5;entryDx=0;entryDy=0;endSize=12;startSize=12;" edge="1" parent="1" source="IO0BBe2mcE7qisCONBEh-3" target="IO0BBe2mcE7qisCONBEh-4">
          <mxGeometry relative="1" as="geometry">
            <mxPoint x="400" y="490" as="sourcePoint" />
            <mxPoint x="560" y="490" as="targetPoint" />
          </mxGeometry>
        </mxCell>
        <mxCell id="IO0BBe2mcE7qisCONBEh-7" value="" style="endArrow=none;html=1;rounded=0;endFill=0;startFill=0;startArrow=ERmany;entryX=1;entryY=0.5;entryDx=0;entryDy=0;exitX=0;exitY=0.5;exitDx=0;exitDy=0;endSize=12;startSize=12;" edge="1" parent="1" source="IO0BBe2mcE7qisCONBEh-12" target="IO0BBe2mcE7qisCONBEh-8">
          <mxGeometry relative="1" as="geometry">
            <mxPoint x="480" y="530" as="sourcePoint" />
            <mxPoint x="500" y="650" as="targetPoint" />
          </mxGeometry>
        </mxCell>
        <mxCell id="IO0BBe2mcE7qisCONBEh-8" value="Admin" style="rounded=0;whiteSpace=wrap;html=1;" vertex="1" parent="1">
          <mxGeometry x="-370" y="540" width="120" height="60" as="geometry" />
        </mxCell>
        <mxCell id="IO0BBe2mcE7qisCONBEh-9" value="Adatlap" style="rounded=0;whiteSpace=wrap;html=1;" vertex="1" parent="1">
          <mxGeometry x="90" y="540" width="120" height="60" as="geometry" />
        </mxCell>
        <mxCell id="IO0BBe2mcE7qisCONBEh-10" value="" style="endArrow=none;html=1;rounded=0;startArrow=ERmany;startFill=0;exitX=1;exitY=0.5;exitDx=0;exitDy=0;strokeWidth=1;endSize=12;startSize=12;entryX=0;entryY=0.5;entryDx=0;entryDy=0;" edge="1" parent="1" source="IO0BBe2mcE7qisCONBEh-12" target="IO0BBe2mcE7qisCONBEh-9">
          <mxGeometry relative="1" as="geometry">
            <mxPoint x="-60" y="710" as="sourcePoint" />
            <mxPoint x="70" y="580" as="targetPoint" />
          </mxGeometry>
        </mxCell>
        <mxCell id="IO0BBe2mcE7qisCONBEh-11" value="HR_Ügynök" style="rounded=0;whiteSpace=wrap;html=1;" vertex="1" parent="1">
          <mxGeometry x="280" y="30" width="120" height="60" as="geometry" />
        </mxCell>
        <mxCell id="IO0BBe2mcE7qisCONBEh-12" value="Moderál" style="rounded=0;whiteSpace=wrap;html=1;" vertex="1" parent="1">
          <mxGeometry x="-130" y="540" width="120" height="60" as="geometry" />
        </mxCell>
        <mxCell id="IO0BBe2mcE7qisCONBEh-13" value="" style="endArrow=none;html=1;rounded=0;startArrow=ERmany;startFill=0;entryX=0.5;entryY=1;entryDx=0;entryDy=0;endSize=12;startSize=12;exitX=0.5;exitY=0;exitDx=0;exitDy=0;" edge="1" parent="1" source="IO0BBe2mcE7qisCONBEh-15" target="IO0BBe2mcE7qisCONBEh-1">
          <mxGeometry relative="1" as="geometry">
            <mxPoint x="20" y="380" as="sourcePoint" />
            <mxPoint x="-10" y="400" as="targetPoint" />
          </mxGeometry>
        </mxCell>
        <mxCell id="IO0BBe2mcE7qisCONBEh-14" value="Hirdet" style="rounded=0;whiteSpace=wrap;html=1;" vertex="1" parent="1">
          <mxGeometry x="500" y="-80" width="120" height="60" as="geometry" />
        </mxCell>
        <mxCell id="IO0BBe2mcE7qisCONBEh-15" value="Kitölt" style="rounded=0;whiteSpace=wrap;html=1;" vertex="1" parent="1">
          <mxGeometry x="90" y="420" width="120" height="60" as="geometry" />
        </mxCell>
        <mxCell id="IO0BBe2mcE7qisCONBEh-16" value="" style="endArrow=none;html=1;rounded=0;startArrow=ERmany;startFill=0;exitX=0.5;exitY=1;exitDx=0;exitDy=0;exitPerimeter=0;entryX=0.5;entryY=0;entryDx=0;entryDy=0;endSize=12;startSize=12;" edge="1" parent="1" source="IO0BBe2mcE7qisCONBEh-15" target="IO0BBe2mcE7qisCONBEh-9">
          <mxGeometry relative="1" as="geometry">
            <mxPoint x="60" y="500" as="sourcePoint" />
            <mxPoint x="190" y="500" as="targetPoint" />
          </mxGeometry>
        </mxCell>
        <mxCell id="IO0BBe2mcE7qisCONBEh-17" value="" style="endArrow=none;html=1;rounded=0;startArrow=ERmany;startFill=0;endSize=12;startSize=12;exitX=0.5;exitY=1;exitDx=0;exitDy=0;entryX=0.5;entryY=0;entryDx=0;entryDy=0;" edge="1" parent="1" source="IO0BBe2mcE7qisCONBEh-14" target="IO0BBe2mcE7qisCONBEh-4">
          <mxGeometry relative="1" as="geometry">
            <mxPoint x="650" y="230" as="sourcePoint" />
            <mxPoint x="690" y="260" as="targetPoint" />
          </mxGeometry>
        </mxCell>
        <mxCell id="IO0BBe2mcE7qisCONBEh-18" value="" style="endArrow=none;html=1;rounded=0;startArrow=ERmany;startFill=0;entryX=1;entryY=0.5;entryDx=0;entryDy=0;endSize=12;startSize=12;exitX=0;exitY=0.5;exitDx=0;exitDy=0;" edge="1" parent="1" source="IO0BBe2mcE7qisCONBEh-14" target="IO0BBe2mcE7qisCONBEh-2">
          <mxGeometry relative="1" as="geometry">
            <mxPoint x="610" y="510" as="sourcePoint" />
            <mxPoint x="570" y="330" as="targetPoint" />
          </mxGeometry>
        </mxCell>
        <mxCell id="IO0BBe2mcE7qisCONBEh-19" value="" style="endArrow=none;html=1;rounded=0;startArrow=ERmany;startFill=0;endSize=12;startSize=12;entryX=0.5;entryY=1;entryDx=0;entryDy=0;exitX=0.5;exitY=0;exitDx=0;exitDy=0;" edge="1" parent="1" source="IO0BBe2mcE7qisCONBEh-11" target="IO0BBe2mcE7qisCONBEh-2">
          <mxGeometry relative="1" as="geometry">
            <mxPoint x="480" y="460" as="sourcePoint" />
            <mxPoint x="480" y="510" as="targetPoint" />
          </mxGeometry>
        </mxCell>
        <mxCell id="IO0BBe2mcE7qisCONBEh-20" value="Felkeres" style="rounded=0;whiteSpace=wrap;html=1;" vertex="1" parent="1">
          <mxGeometry x="280" y="140" width="120" height="60" as="geometry" />
        </mxCell>
        <mxCell id="IO0BBe2mcE7qisCONBEh-21" value="" style="endArrow=none;html=1;rounded=0;startArrow=ERmany;startFill=0;entryX=0.5;entryY=1;entryDx=0;entryDy=0;endSize=12;startSize=12;exitX=0.5;exitY=0;exitDx=0;exitDy=0;" edge="1" parent="1" source="IO0BBe2mcE7qisCONBEh-20" target="IO0BBe2mcE7qisCONBEh-11">
          <mxGeometry relative="1" as="geometry">
            <mxPoint x="340" y="160" as="sourcePoint" />
            <mxPoint x="253" y="700" as="targetPoint" />
            <Array as="points" />
          </mxGeometry>
        </mxCell>
        <mxCell id="IO0BBe2mcE7qisCONBEh-22" value="" style="endArrow=none;html=1;rounded=0;startArrow=ERmany;startFill=0;exitX=0.442;exitY=1.033;exitDx=0;exitDy=0;entryX=0.45;entryY=-0.017;entryDx=0;entryDy=0;endSize=12;startSize=12;exitPerimeter=0;entryPerimeter=0;" edge="1" parent="1" source="IO0BBe2mcE7qisCONBEh-20" target="IO0BBe2mcE7qisCONBEh-3">
          <mxGeometry relative="1" as="geometry">
            <mxPoint x="160" y="330" as="sourcePoint" />
            <mxPoint x="162" y="400" as="targetPoint" />
          </mxGeometry>
        </mxCell>
      </root>
    </mxGraphModel>
  </diagram>
</mxfile>
